<svg width="56" height="55" viewBox="0 0 56 55" fill="none" xmlns="http://www.w3.org/2000/svg">
<path d="M11.727 34.2829L9.14791 40.3205C9.08772 40.4623 8.98795 40.5839 8.86052 40.6706C8.73309 40.7573 8.58339 40.8055 8.42931 40.8094L1.94111 41.3923L6.88711 45.7105C7.1168 45.9118 7.2043 46.2158 7.14086 46.4947L5.67959 52.8954L11.3136 49.5266C11.5761 49.3691 11.8933 49.3801 12.1383 49.5266L17.7744 52.8954L17.1324 50.0888C17.6661 50.149 18.2163 50.1096 18.7511 49.9631L19.4818 53.1689C19.5026 53.3078 19.5026 53.4511 19.4796 53.5943C19.4516 53.767 19.3915 53.9328 19.3024 54.0833C19.1155 54.3957 18.8122 54.6211 18.4591 54.71C18.12 54.7953 17.7482 54.7505 17.4211 54.5558L11.7259 51.1509L6.07991 54.5284C5.95741 54.6094 5.8196 54.6695 5.67194 54.7067L5.56912 54.7319C5.41053 54.7603 5.24209 54.7603 5.07146 54.7275L5.01677 54.7176C4.65146 54.6323 4.35177 54.4059 4.16583 54.1095C3.97671 53.8089 3.91126 53.4467 3.98317 53.0989L5.4674 46.603L0.471098 42.24C0.338398 42.1241 0.229228 41.9837 0.149532 41.8266C0.0759597 41.6829 0.028202 41.5274 0.008437 41.3672L0.00296819 41.2961C-0.0210946 40.9341 0.102501 40.5906 0.324534 40.3259C0.54438 40.0645 0.860478 39.8829 1.22142 39.8425L7.85728 39.2507L10.4582 33.1574C10.5261 32.9966 10.6267 32.8457 10.7536 32.7177C10.8564 32.6138 10.9767 32.5252 11.1145 32.4563C11.1626 32.43 11.214 32.4082 11.2676 32.3907C11.5914 32.2747 11.937 32.2911 12.2378 32.4115C12.5386 32.5329 12.7978 32.7604 12.9531 33.0688L15.0116 37.8825L14.4133 40.4998C14.3695 40.4451 14.3345 40.385 14.3072 40.3205L11.727 34.2829ZM26.7323 1.22939C26.7323 0.551256 27.2825 0 27.9617 0C28.6399 0 29.1911 0.551256 29.1911 1.22939V6.78133C29.1911 7.45946 28.6399 8.01071 27.9617 8.01071C27.2825 8.01071 26.7323 7.45946 26.7323 6.78133V1.22939ZM4.47755 16.6011C3.85411 16.3386 3.56098 15.6211 3.82348 14.9977C4.08598 14.3742 4.80458 14.0811 5.42803 14.3436L10.5392 16.5092C11.1626 16.7717 11.4558 17.4904 11.1932 18.1127C10.9307 18.7361 10.2121 19.0293 9.5887 18.7668L4.47755 16.6011ZM9.67511 8.63416C9.19823 8.154 9.20042 7.37743 9.68058 6.90055C10.1607 6.42367 10.9373 6.42585 11.4142 6.90601L15.3189 10.8523C15.7958 11.3325 15.7936 12.109 15.3135 12.5859C14.8333 13.0628 14.0567 13.0606 13.5798 12.5805L9.67511 8.63416ZM17.5119 3.23754C17.2549 2.6119 17.5535 1.89549 18.1791 1.63846C18.8058 1.38142 19.5212 1.68002 19.7793 2.30565L21.8902 7.44086C22.1473 8.0665 21.8476 8.78291 21.222 9.03994C20.5963 9.29698 19.8799 8.99838 19.6229 8.37275L17.5119 3.23754ZM50.572 14.3436C51.1954 14.0811 51.914 14.3742 52.1765 14.9977C52.439 15.6211 52.1459 16.3386 51.5225 16.6011L46.4113 18.7668C45.7879 19.0293 45.0693 18.7361 44.8068 18.1127C44.5443 17.4904 44.8374 16.7717 45.4608 16.5092L50.572 14.3436ZM44.5858 6.90601C45.0627 6.42585 45.8393 6.42367 46.3194 6.90055C46.7996 7.37743 46.8018 8.154 46.3249 8.63416L42.4202 12.5805C41.9433 13.0606 41.1667 13.0628 40.6866 12.5859C40.2064 12.109 40.2042 11.3325 40.6811 10.8523L44.5858 6.90601ZM36.2207 2.30565C36.4788 1.68002 37.1942 1.38142 37.8209 1.63846C38.4465 1.89549 38.7451 2.6119 38.4881 3.23754L36.3771 8.37275C36.1201 8.99838 35.4037 9.29698 34.778 9.03994C34.1524 8.78291 33.8527 8.0665 34.1098 7.44086L36.2207 2.30565ZM30.4139 14.4245L34.078 23.0051L43.258 23.8287C43.3422 23.8287 43.4253 23.8353 43.5063 23.8462C44.1811 23.9293 44.7685 24.2695 45.1797 24.7584L45.3132 24.9411C45.638 25.4026 45.8163 25.9681 45.7857 26.562L45.7638 26.784C45.7233 27.0783 45.6336 27.3561 45.5057 27.6087L45.4039 27.7837C45.3121 27.9325 45.206 28.0703 45.0878 28.1983C44.9982 28.3044 44.8953 28.4006 44.7827 28.4827L37.8307 34.553L39.945 43.8194C40.0642 44.4778 39.922 45.1308 39.5862 45.6646C39.405 45.9534 39.1685 46.2037 38.8904 46.401C38.6122 46.5982 38.2978 46.7386 37.9653 46.8141C37.624 46.8951 37.274 46.8994 36.936 46.8393L36.9349 46.8458C36.586 46.7835 36.2535 46.6501 35.9604 46.4586L28 41.6964L19.9051 46.5363C19.3233 46.8709 18.6345 46.9669 17.9833 46.8043C17.3358 46.6413 16.7528 46.2322 16.3853 45.6219L16.2869 45.4349C16.1693 45.197 16.0888 44.9425 16.0485 44.6802C15.996 44.3488 16.008 44.0152 16.0802 43.7002L18.1693 34.553L11.1036 28.3842C10.8456 28.1589 10.6346 27.8848 10.4828 27.5777C10.3309 27.2707 10.2412 26.9366 10.2187 26.5948C10.1761 25.9386 10.385 25.2593 10.8586 24.7179C11.0866 24.4569 11.3643 24.2438 11.6756 24.0912C11.9829 23.9381 12.3242 23.8517 12.6731 23.832L21.922 23.0051L25.6068 14.3775C25.7406 14.0627 25.9353 13.7774 26.1797 13.5381C26.4241 13.2988 26.7134 13.1101 27.0309 12.983C28.3631 12.4459 29.8594 13.0956 30.403 14.3972L30.4139 14.4245ZM45.5483 33.1738L48.1427 39.2507L54.7786 39.8425C55.1395 39.8829 55.4556 40.0645 55.6755 40.3259C55.8975 40.5906 56.0211 40.9341 55.997 41.2961L55.9916 41.3672C55.9718 41.5274 55.924 41.6829 55.8505 41.8266C55.7717 41.983 55.6613 42.1241 55.5289 42.24L50.5326 46.603L52.0168 53.0989C52.0912 53.4587 52.0168 53.8186 51.8342 54.1095C51.6482 54.4059 51.3485 54.6323 50.9832 54.7176L50.9285 54.7275C50.7579 54.7603 50.5895 54.7603 50.4309 54.7319L50.3281 54.7067C50.1804 54.6695 50.0426 54.6094 49.9201 54.5284L44.273 51.1509L38.5789 54.5558C38.4245 54.6485 38.2534 54.7098 38.0752 54.7363C37.8971 54.7628 37.7155 54.7538 37.5409 54.71C37.2018 54.6247 36.8923 54.4081 36.6976 54.0833C36.6057 53.929 36.5467 53.7628 36.5193 53.5965L36.5182 53.5878C36.4953 53.4511 36.4963 53.31 36.5182 53.1711L37.25 49.9598C37.3692 49.9926 37.4917 50.0199 37.6142 50.0418C38.0243 50.1162 38.4476 50.1337 38.8676 50.0867L38.2256 52.8954L43.8606 49.5266C44.1067 49.3801 44.4228 49.3691 44.6853 49.5266L50.3204 52.8954L48.858 46.4947C48.7957 46.2158 48.8832 45.9118 49.1129 45.7105L54.0589 41.3923L47.5707 40.8094C47.4166 40.8055 47.2669 40.7573 47.1395 40.6706C47.0121 40.5839 46.9123 40.4623 46.8521 40.3205L44.273 34.2829L41.695 40.3205C41.6666 40.3872 41.6283 40.4495 41.5834 40.5053L40.9862 37.8901L43.0469 33.0688C43.2022 32.7604 43.4614 32.5329 43.7622 32.4115C44.063 32.2911 44.4086 32.2747 44.7324 32.3907C44.786 32.4082 44.8374 32.43 44.8855 32.4563C45.0233 32.5252 45.1436 32.6138 45.2464 32.7177C45.3733 32.8457 45.4739 32.9966 45.5418 33.1574L45.5483 33.1738Z" fill="black"/>
<path d="M28.7702 15.0742L32.8664 24.6665L43.2582 25.5984C43.7165 25.6389 44.0555 26.0425 44.0162 26.5008C43.9978 26.715 43.8971 26.9138 43.7351 27.0553V27.0564L35.8742 33.9198L38.1995 44.0939C38.3024 44.5435 38.0213 44.9908 37.5717 45.0947C37.342 45.1461 37.1123 45.0991 36.9286 44.9788L28.0002 39.6412L19.0434 44.9963C18.9493 45.0525 18.8451 45.0896 18.7367 45.1055C18.6283 45.1213 18.5178 45.1157 18.4115 45.0889C18.3053 45.0621 18.2054 45.0146 18.1175 44.9492C18.0296 44.8837 17.9555 44.8016 17.8993 44.7075C17.7888 44.5233 17.7539 44.3034 17.802 44.0939H17.8009L20.1262 33.9198L12.2653 27.0564C11.9186 26.7534 11.8836 26.2262 12.1866 25.8795C12.2599 25.7958 12.3493 25.7275 12.4494 25.6789C12.5495 25.6302 12.6584 25.6021 12.7696 25.5962L23.133 24.6665L27.2324 15.0688C27.4129 14.6444 27.9029 14.4475 28.3272 14.628C28.5362 14.7166 28.6893 14.8806 28.7702 15.0742Z" fill="#FF9900"/>
</svg>
