<svg width="59" height="52" viewBox="0 0 59 52" fill="none" xmlns="http://www.w3.org/2000/svg">
<path fill-rule="evenodd" clip-rule="evenodd" d="M10.1494 40.2711H48.6778L54.6983 23.5971C55.0103 23.6979 55.3464 23.7508 55.6921 23.7508C57.5165 23.7508 59 22.272 59 20.4428C59 18.6184 57.5213 17.1349 55.6921 17.1349C53.8677 17.1349 52.3842 18.6136 52.3842 20.4428C52.3842 21.163 52.6146 21.8255 53.0035 22.3681L49.5852 25.1815C44.7985 29.1183 41.7979 27.2939 42.7341 21.1774L43.2622 17.735C43.4446 17.7687 43.6367 17.7831 43.8287 17.7831C45.6531 17.7831 47.1366 16.3043 47.1366 14.4751C47.1366 12.6507 45.6579 11.1672 43.8287 11.1672C42.0043 11.1672 40.5208 12.6459 40.5208 14.4751C40.5208 15.517 41.0057 16.4484 41.7595 17.0533L40.9385 18.3496C36.9152 24.3893 33.9482 22.0752 32.7623 16.1075L30.645 6.35658C31.8309 5.85247 32.6663 4.68102 32.6663 3.30792C32.6663 1.48352 31.1876 0 29.3584 0C27.534 0 26.0504 1.47872 26.0504 3.30792C26.0504 4.83465 27.0827 6.11653 28.4846 6.50061L27.1115 12.0602C25.9208 17.1541 24.4949 27.3035 18.0471 18.652L16.9957 17.2213C17.8263 16.6212 18.3688 15.6418 18.3688 14.5376C18.3688 12.7132 16.8901 11.2296 15.0609 11.2296C13.2365 11.2296 11.7529 12.7084 11.7529 14.5376C11.7529 16.3619 13.2317 17.8455 15.0609 17.8455C15.3153 17.8455 15.565 17.8167 15.805 17.7591L16.0259 20.0059C16.458 23.0738 17.0101 27.2267 13.4861 27.0299C11.7385 26.9338 11.0808 26.3385 9.74611 25.3879L5.93409 22.6849C6.36138 22.128 6.61584 21.4319 6.61584 20.6733C6.61584 18.8489 5.13711 17.3654 3.30792 17.3654C1.48352 17.3654 0 18.8441 0 20.6733C0 22.5025 1.47872 23.9812 3.30792 23.9812C3.74001 23.9812 4.1481 23.8996 4.52738 23.7508L10.1494 40.2711ZM10.1206 44.8849H48.7738V51.7456H10.1206V44.8849Z" fill="black"/>
</svg>
